<?xml version="1.0" standalone="no"?>
<svg xmlns:xlink="http://www.w3.org/1999/xlink" id="wave" style="transform:rotate(0deg); transition: 0.3s" viewBox="0 0 1440 120" version="1.1" xmlns="http://www.w3.org/2000/svg"><defs><linearGradient id="sw-gradient-0" x1="0" x2="0" y1="1" y2="0"><stop stop-color="rgba(243, 236, 234, 1)" offset="0%"/><stop stop-color="rgba(243, 236, 234, 1)" offset="100%"/></linearGradient></defs><path style="transform:translate(0, 0px); opacity:1" fill="url(#sw-gradient-0)" d="M0,24L60,36C120,48,240,72,360,86C480,100,600,104,720,92C840,80,960,52,1080,36C1200,20,1320,16,1440,18C1560,20,1680,28,1800,34C1920,40,2040,44,2160,50C2280,56,2400,64,2520,74C2640,84,2760,96,2880,92C3000,88,3120,68,3240,52C3360,36,3480,24,3600,22C3720,20,3840,28,3960,32C4080,36,4200,36,4320,32C4440,28,4560,20,4680,26C4800,32,4920,52,5040,64C5160,76,5280,80,5400,70C5520,60,5640,36,5760,40C5880,44,6000,76,6120,74C6240,72,6360,36,6480,20C6600,4,6720,8,6840,14C6960,20,7080,28,7200,38C7320,48,7440,60,7560,72C7680,84,7800,96,7920,94C8040,92,8160,76,8280,76C8400,76,8520,92,8580,100L8640,108L8640,120L8580,120C8520,120,8400,120,8280,120C8160,120,8040,120,7920,120C7800,120,7680,120,7560,120C7440,120,7320,120,7200,120C7080,120,6960,120,6840,120C6720,120,6600,120,6480,120C6360,120,6240,120,6120,120C6000,120,5880,120,5760,120C5640,120,5520,120,5400,120C5280,120,5160,120,5040,120C4920,120,4800,120,4680,120C4560,120,4440,120,4320,120C4200,120,4080,120,3960,120C3840,120,3720,120,3600,120C3480,120,3360,120,3240,120C3120,120,3000,120,2880,120C2760,120,2640,120,2520,120C2400,120,2280,120,2160,120C2040,120,1920,120,1800,120C1680,120,1560,120,1440,120C1320,120,1200,120,1080,120C960,120,840,120,720,120C600,120,480,120,360,120C240,120,120,120,60,120L0,120Z"/></svg>